<?xml version="1.0" encoding="UTF-8"?>
<!DOCTYPE svg PUBLIC "-//W3C//DTD SVG 1.1//EN" "http://www.w3.org/Graphics/SVG/1.1/DTD/svg11.dtd">
<svg version="1.1" xmlns="http://www.w3.org/2000/svg" xmlns:xlink="http://www.w3.org/1999/xlink" x="0" y="0" width="16" height="16" viewBox="0, 0, 16, 16">
  <g id="Remove">
    <path d="M10.5,7 L5.5,7 C4.948,7 4.5,7.448 4.5,8 C4.5,8.552 4.948,9 5.5,9 L10.5,9 C11.052,9 11.5,8.552 11.5,8 C11.5,7.448 11.052,7 10.5,7 z M8,0 C3.582,0 0,3.582 0,8 C0,12.418 3.582,16 8,16 C12.418,16 16,12.418 16,8 C16,3.582 12.418,0 8,0 z M8,14.5 C4.416,14.5 1.5,11.584 1.5,8 C1.5,4.416 4.416,1.5 8,1.5 C11.584,1.5 14.5,4.416 14.5,8 C14.5,11.584 11.584,14.5 8,14.5 z" fill="#FFF575"/>
  </g>
</svg>
