<?xml version="1.0" encoding="UTF-8"?>
<!DOCTYPE svg PUBLIC "-//W3C//DTD SVG 1.1//EN" "http://www.w3.org/Graphics/SVG/1.1/DTD/svg11.dtd">
<svg version="1.1" xmlns="http://www.w3.org/2000/svg" xmlns:xlink="http://www.w3.org/1999/xlink" x="0" y="0" width="142.669" height="144.001" viewBox="0, 0, 142.669, 144.001">
  <g id="Livello_1">
    <g>
      <path d="M23.114,41.143 C30.21,30.169 40.962,21.776 53.642,17.712 L53.642,2.121 C32.525,7.349 15.087,21.89 5.939,41.143 z" fill="#373535"/>
      <path d="M74.271,15.101 C97.126,16.401 116.411,31.227 124.244,51.682 L142.669,65.17 C139.227,28.61 108.46,-0 71,-0 C65.799,-0 60.732,0.565 55.844,1.612 z" fill="#373535"/>
      <path d="M124.243,92.319 C116.41,112.773 97.126,127.6 74.27,128.9 L55.844,142.389 C60.731,143.436 65.799,144.001 71,144.001 C108.46,144.001 139.226,115.39 142.669,78.832 z" fill="#373535"/>
      <path d="M53.642,126.288 C40.961,122.224 30.209,113.831 23.114,102.857 L5.939,102.857 C15.086,122.11 32.525,136.652 53.642,141.88 z" fill="#373535"/>
      <path d="M56.216,87.235 L55.146,81.345 L17.139,80.811 z M56.216,76.797 L55.146,70.372 L10.454,70.372 z M95.411,88.438 L103.604,91.117 L109.84,89.777 L110.643,87.236 L109.84,84.96 L101.922,85.496 L94.404,83.621 z M93.123,74.855 L93.123,80.074 L101.585,83.086 L112.378,82.182 L113.181,78.938 L112.378,76.16 L101.082,76.26 z M91.817,69.937 L100.577,74.254 L115.697,73.048 L116.5,68.9 L115.697,64.618 L104.108,63.414 L103.189,70.908 L91.947,67.028 z M103.604,52.574 L104.108,61.807 L115.69,60.603 L116.492,57.526 L115.69,53.779 z M3,60.201 L58.048,65.421 L60.57,89.911 L71.158,89.911 L83.766,94.728 L99.904,96.468 L104.443,92.855 L93.349,91.25 L88.334,78.402 L77.962,79.874 L87.397,71.51 L89.94,56.857 L92.848,55.254 L94.155,63.418 L101.421,67.03 L100.073,48.96 L83.433,46.15 L69.817,57.793 L60.236,58.596 z M59.642,11.829 L141.842,72.001 L59.642,132.173 L59.642,102.858 L59.642,96.858 L53.642,96.858 L0,96.858 L0,47.143 L53.642,47.143 L59.642,47.143 L59.642,41.143 z" fill="#373535"/>
    </g>
  </g>
</svg>
