<?xml version="1.0" encoding="UTF-8"?>
<!DOCTYPE svg PUBLIC "-//W3C//DTD SVG 1.1//EN" "http://www.w3.org/Graphics/SVG/1.1/DTD/svg11.dtd">
<svg version="1.1" xmlns="http://www.w3.org/2000/svg" xmlns:xlink="http://www.w3.org/1999/xlink" x="0" y="0" width="142.424" height="145.877" viewBox="0, 0, 142.424, 145.877">
  <g id="Livello_1">
    <g>
      <path d="M70.912,8.355 C77.732,9.335 84.708,9.705 91.329,9.705 C96.358,9.705 101.183,9.492 105.588,9.175 C95.186,3.34 83.198,0 70.424,0 C61.935,0 53.796,1.48 46.234,4.177 C52.555,5.435 60.768,6.895 70.912,8.355" fill="#373535"/>
      <path d="M15.476,56.875 C17.748,48.631 21.828,41.134 27.264,34.831 C27.875,26.797 28.538,19.12 29.086,13.065 C14.496,23.318 3.885,38.839 0.028,56.875 z" fill="#373535"/>
      <path d="M127.445,28.062 C127.113,36.828 126.549,47.309 125.594,57.661 C126.787,62.244 127.424,67.048 127.424,72 C127.424,87.52 121.18,101.605 111.083,111.894 C102.092,126.638 89.834,136.834 79.709,143.383 C115.084,138.826 142.424,108.616 142.424,72 C142.424,55.453 136.828,40.221 127.445,28.062" fill="#373535"/>
      <path d="M36.779,117.972 C26.527,110.449 18.879,99.587 15.441,87 L0,87 C5.573,113.291 25.492,134.268 51.181,141.378 C46.704,135.475 41.409,127.522 36.779,117.972" fill="#373535"/>
      <path d="M52.423,86.999 L32.848,86.999 C33.68,91.688 34.837,96.196 36.23,100.493 z" fill="#373535"/>
      <path d="M91.329,15.705 C83.721,15.705 76.563,15.23 70.058,14.294 C53.654,11.933 42.229,9.577 35.58,8.031 C34.572,18.8 32.69,40.059 31.849,57 L52.424,57 L34.424,42 L61.424,49.5 L61.424,27 L88.424,57 L88.424,87 L61.424,117 L61.424,94.5 L36.538,101.413 C43.854,123.315 57.048,139.607 62.672,145.877 C66.97,143.949 74.686,140.055 82.946,133.8 C99.352,121.374 110.085,105.957 114.847,87.976 C120.333,67.25 121.567,29.191 121.844,13.469 C114.936,14.46 103.779,15.705 91.329,15.705" fill="#373535"/>
    </g>
  </g>
</svg>
