<?xml version="1.0" encoding="UTF-8"?>
<!DOCTYPE svg PUBLIC "-//W3C//DTD SVG 1.1//EN" "http://www.w3.org/Graphics/SVG/1.1/DTD/svg11.dtd">
<svg version="1.1" xmlns="http://www.w3.org/2000/svg" xmlns:xlink="http://www.w3.org/1999/xlink" x="0" y="0" width="144" height="138.999" viewBox="0, 0, 144, 138.999">
  <g id="Livello_1">
    <g>
      <path d="M126.384,110.126 L126.384,119.155 C133.72,110.702 139.12,100.531 141.89,89.315 z" fill="#373535"/>
      <path d="M23.553,101.984 C18.138,93.267 15,82.995 15,72 C15,40.57 40.571,15 72,15 C103.43,15 129,40.57 129,72 C129,74.088 128.879,76.149 128.659,78.18 L143.324,81.758 C143.757,78.565 144,75.311 144,72 C144,32.235 111.765,-0 72,-0 C32.236,-0 0,32.235 0,72 C0,93.107 9.083,112.091 23.553,125.261 z" fill="#373535"/>
      <path d="M51.5,45.511 L65.545,49.384 C69.058,42.978 73.996,37.194 80.94,33.802 L67.171,29.898 C49.718,30.831 40.037,44.072 34.792,56.311 z" fill="#373535"/>
      <path d="M116.518,123.588 L60.712,63.078 L90.847,69.555 C90.78,67.067 90.543,64.683 90.18,62.399 L52.498,52.01 L29.553,66.841 L29.553,138.999 L120.384,138.999 L120.384,118.336 z" fill="#373535"/>
      <path d="M77.951,72.921 L115.999,114.174 L136.489,86.338 L121.56,82.766 L121.352,80.634 C121.321,80.307 117.947,47.835 99.084,38.563 L83.405,34.793 C95.933,49.582 97.236,73.017 97.241,73.306 L97.302,77.079 z" fill="#373535"/>
    </g>
  </g>
</svg>
